<svg xmlns="http://www.w3.org/2000/svg" viewBox="0 0 192 192" role="img" aria-labelledby="title">
  <title id="title">Duck</title>
  <g transform="translate(0.000000,192.000000) scale(0.100000,-0.100000)"
fill="#000000" stroke="none">
<path d="M652 1800 c-26 -12 -77 -54 -125 -105 -92 -94 -112 -105 -200 -105
-139 0 -183 -86 -71 -140 36 -18 70 -24 148 -28 230 -11 265 -88 116 -257 -86
-97 -105 -148 -105 -280 0 -225 130 -362 398 -420 27 -5 28 -8 25 -53 l-3 -47
-90 -31 c-109 -38 -121 -60 -60 -113 84 -73 236 26 243 159 l4 70 48 0 48 0 4
-52 c6 -77 -6 -108 -62 -163 -80 -79 -54 -141 58 -137 110 4 113 12 97 244
l-8 107 39 6 c438 69 667 350 549 675 -69 191 -259 234 -260 59 0 -59 0 -60
-25 -54 -173 44 -312 58 -412 42 l-47 -8 6 38 c3 21 21 74 40 117 88 205 81
333 -23 425 -81 71 -235 95 -332 51z m201 -61 c137 -38 172 -177 92 -361 -42
-96 -61 -108 -167 -108 -78 0 -88 7 -88 55 0 54 -32 96 -100 130 l-48 24 5 63
c7 96 9 100 63 143 79 63 153 79 243 54z m732 -545 c111 -119 80 -384 -59
-511 -231 -211 -781 -216 -964 -7 -113 128 -102 303 29 462 l51 62 108 0 c60
0 116 3 125 7 23 8 11 -73 -15 -102 -60 -68 -73 -185 -29 -265 127 -232 637
-146 569 95 -13 46 -8 65 17 65 70 0 105 49 104 146 -1 85 17 98 64 48z"/>
<path d="M716 1604 c-24 -23 -20 -53 9 -66 38 -17 74 19 57 57 -13 29 -43 33
-66 9z"/>
</g>
</svg>
