<svg xmlns="http://www.w3.org/2000/svg" viewBox="0 0 192 192" role="img" aria-labelledby="title">
  <title id="title">Hedgehog</title>
  <g transform="translate(0.000000,192.000000) scale(0.100000,-0.100000)"
fill="#000000" stroke="none">
<path d="M1041 1639 c-13 -5 -52 -39 -87 -74 -73 -77 -68 -76 -111 -25 -19 22
-39 40 -45 40 -6 0 -26 -18 -45 -40 -19 -22 -39 -40 -44 -40 -5 0 -21 18 -35
40 -45 68 -82 53 -128 -52 -32 -73 -33 -73 -97 -33 -29 19 -56 35 -60 35 -10
0 -29 -73 -35 -139 -8 -75 -7 -75 -78 -49 -93 35 -98 -4 -14 -116 58 -76 46
-114 -46 -140 -238 -69 -113 -336 215 -458 47 -17 32 -62 -38 -111 -85 -59
-87 -61 -79 -91 16 -63 129 -79 195 -27 24 19 25 19 45 -12 69 -100 199 -105
340 -12 98 64 167 62 225 -8 94 -112 381 -44 381 91 0 33 32 59 84 66 56 9 65
25 42 72 -24 51 -20 70 14 84 92 38 129 90 90 125 -29 26 -25 44 25 116 59 84
56 113 -13 134 -23 7 -22 7 16 49 48 52 64 80 56 99 -5 15 -72 47 -97 47 -41
0 -52 26 -24 60 15 17 27 35 27 40 0 27 -72 60 -133 60 -62 0 -71 15 -41 69
44 77 6 101 -163 101 l-76 0 6 38 c12 71 -17 76 -132 26 -29 -13 -55 -24 -56
-24 -2 0 -9 16 -15 35 -12 37 -26 41 -69 24z m79 -172 c0 -23 -176 -189 -196
-185 -46 9 -22 50 74 125 91 71 122 86 122 60z m-467 -14 c6 -9 -19 -158 -28
-173 -9 -15 -45 -12 -51 3 -3 8 5 40 17 73 12 32 26 69 30 82 8 22 24 29 32
15z m737 -103 c0 -10 -94 -76 -146 -103 -34 -17 -65 -3 -49 23 19 31 195 104
195 80z m30 -173 c0 -19 -27 -42 -180 -149 -168 -118 -177 -123 -196 -107 -40
33 -20 52 168 162 181 107 208 119 208 94z m-515 -42 c53 -52 18 -178 -62
-223 -39 -21 -42 -26 -58 -97 -19 -85 -38 -114 -103 -152 -112 -66 -333 -11
-451 111 l-35 36 32 33 c55 56 34 107 -44 107 -40 0 -18 18 44 36 41 12 71 30
107 63 127 119 199 125 358 29 l39 -23 20 28 c51 70 114 92 153 52z m721 -106
c11 -18 -16 -35 -133 -84 -115 -49 -147 -52 -141 -14 5 33 258 124 274 98z
m-61 -249 c0 -15 -120 -55 -182 -62 -30 -4 -54 25 -36 43 27 27 218 44 218 19z
m-625 -41 c138 -22 377 -119 450 -182 63 -54 74 -99 40 -155 -33 -54 -155 -99
-143 -52 4 14 0 20 -11 20 -9 0 -21 -9 -28 -20 -7 -11 -21 -20 -32 -20 -15 0
-16 3 -6 15 23 27 4 50 -25 31 -25 -16 -25 -16 -31 13 -7 34 -14 36 -134 46
-75 6 -76 6 -125 -30 -84 -60 -182 -96 -169 -61 8 20 -19 22 -36 2 -6 -8 -18
-12 -26 -9 -11 4 -12 9 -3 19 16 20 2 36 -21 24 -52 -28 -38 20 20 69 l50 42
-23 40 -22 40 25 20 c90 72 113 95 128 125 18 38 24 39 122 23z"/>
<path d="M786 1040 c-30 -36 -32 -52 -10 -74 33 -34 93 25 82 81 -6 31 -43 27
-72 -7z"/>
<path d="M479 1004 c-17 -20 -17 -78 0 -98 43 -52 105 31 71 95 -13 23 -53 25
-71 3z"/>
</g>
</svg>
