<svg xmlns="http://www.w3.org/2000/svg" viewBox="0 0 192 192" role="img" aria-labelledby="title">
  <title id="title">Ant</title>
  <g transform="translate(0.000000,192.000000) scale(0.100000,-0.100000)"
fill="#000000" stroke="none">
<path d="M210 1707 c-42 -15 -70 -58 -54 -84 16 -26 50 -27 83 -4 66 47 126
-21 146 -166 l7 -51 -54 -16 c-30 -8 -72 -29 -95 -45 -28 -20 -48 -27 -66 -24
-52 10 -104 -86 -67 -123 6 -6 6 -22 0 -44 -51 -179 101 -361 313 -377 62 -5
74 -8 61 -17 -9 -7 -30 -64 -48 -127 l-32 -114 -64 -21 c-60 -20 -65 -23 -63
-49 3 -39 4 -40 96 -14 l84 23 34 124 c31 112 37 127 70 152 l35 29 28 -22 27
-22 -27 -65 c-14 -35 -34 -107 -44 -159 -20 -103 -22 -106 -103 -147 l-47 -24
15 -31 c9 -17 19 -29 23 -27 4 2 39 20 78 40 l71 37 22 112 c37 186 60 233
109 223 l32 -7 0 -181 1 -181 44 -48 c72 -78 120 -33 53 49 l-33 39 3 156 3
157 27 5 c15 3 32 1 38 -4 19 -16 81 -150 99 -214 28 -101 36 -114 95 -160 55
-42 58 -43 74 -26 24 26 20 35 -32 79 -43 36 -50 49 -71 122 -13 44 -41 114
-61 155 l-38 75 24 0 c26 0 34 -8 94 -86 102 -136 257 -199 480 -198 229 1
235 7 235 239 0 177 -24 256 -115 376 -176 235 -480 281 -651 99 l-47 -50 -43
33 c-38 27 -55 33 -117 37 l-74 5 -14 40 c-7 21 -27 59 -44 84 l-32 44 15 51
c47 156 15 286 -79 328 -54 23 -98 17 -120 -17 -30 -46 13 -83 76 -65 48 14
46 15 66 -35 19 -50 16 -163 -5 -202 l-11 -22 -43 19 c-24 11 -61 22 -84 26
l-40 6 -6 57 c-13 118 -95 251 -154 251 -12 0 -27 2 -35 4 -7 3 -29 0 -48 -7z
m254 -478 c53 -41 20 -149 -46 -149 -88 0 -94 132 -8 163 24 9 26 8 54 -14z
m895 -89 c129 -37 95 -137 -46 -133 -113 3 -150 37 -102 97 31 39 89 53 148
36z m265 -129 c65 -72 -280 -517 -360 -465 -32 22 -31 27 16 58 119 78 256
261 289 384 13 46 28 52 55 23z m112 -208 c18 -94 -211 -344 -300 -328 -46 9
-45 13 15 54 71 49 189 178 227 249 38 72 48 76 58 25z"/>
</g>
</svg>
